<?xml version="1.0" encoding="UTF-8" standalone="no"?>
<!-- Created with Inkscape (http://www.inkscape.org/) -->

<svg
   xmlns:dc="http://purl.org/dc/elements/1.1/"
   xmlns:cc="http://creativecommons.org/ns#"
   xmlns:rdf="http://www.w3.org/1999/02/22-rdf-syntax-ns#"
   xmlns:svg="http://www.w3.org/2000/svg"
   xmlns="http://www.w3.org/2000/svg"
   xmlns:sodipodi="http://sodipodi.sourceforge.net/DTD/sodipodi-0.dtd"
   xmlns:inkscape="http://www.inkscape.org/namespaces/inkscape"
   width="87.993355"
   height="128"
   id="svg2"
   version="1.1"
   inkscape:version="0.91 r13725"
   sodipodi:docname="tcga-dp_logo_128.svg">
  <defs
     id="defs4" />
  <sodipodi:namedview
     id="base"
     pagecolor="#ffffff"
     bordercolor="#666666"
     borderopacity="1.0"
     inkscape:pageopacity="0"
     inkscape:pageshadow="2"
     inkscape:zoom="1.478"
     inkscape:cx="141.23511"
     inkscape:cy="136.58312"
     inkscape:document-units="px"
     inkscape:current-layer="layer2"
     showgrid="false"
     inkscape:window-width="1677"
     inkscape:window-height="929"
     inkscape:window-x="81"
     inkscape:window-y="49"
     inkscape:window-maximized="0"
     fit-margin-top="0"
     fit-margin-left="0"
     fit-margin-right="0"
     fit-margin-bottom="0" />
  <metadata
     id="metadata7">
    <rdf:RDF>
      <cc:Work
         rdf:about="">
        <dc:format>image/svg+xml</dc:format>
        <dc:type
           rdf:resource="http://purl.org/dc/dcmitype/StillImage" />
        <dc:title></dc:title>
      </cc:Work>
    </rdf:RDF>
  </metadata>
  <g
     inkscape:groupmode="layer"
     id="layer2"
     inkscape:label="right_hemisphere"
     style="display:inline"
     transform="translate(-108.76489,-339.77392)">
    <path
       style="fill:#90c67e;fill-opacity:1;stroke:#90c67e;stroke-width:0.28817031px;stroke-linecap:butt;stroke-linejoin:miter;stroke-opacity:1"
       d="m 155.35405,339.93668 c -1.80316,0.33983 -5.03949,1.44764 -7.70855,2.26034 0.3032,0.92304 0.80245,1.9523 1.26074,3.13384 -3.80258,1.81863 -7.21719,3.85744 -11.01978,5.67606 -1.21124,-1.39681 -2.48876,-3.1405 -3.73091,-4.80254 -2.37808,1.62407 -4.39811,3.04689 -6.7762,4.67097 1.5087,2.35938 2.62248,3.88198 4.27492,5.52122 1.93315,1.9177 4.14768,3.57594 6.49905,4.94916 2.0348,1.18835 4.23723,2.11475 6.49361,2.79398 2.70594,0.81457 5.65056,1.20534 8.34301,1.50505 0.43565,2.054 0.81786,3.95972 1.10336,5.9598 0.62988,4.41265 1.06071,8.85613 1.34179,13.30463 0.43475,6.88062 0.58012,13.78295 0.53131,20.67619 -0.0467,6.59235 -0.31431,13.18249 -0.79246,19.75764 -0.33998,4.67519 -0.77523,9.57526 -1.41912,14.05836 -1.6533,0.33182 -4.10809,0.76739 -6.10031,1.32271 -2.45559,0.68447 -4.95531,1.31254 -7.26729,2.3864 -3.02442,1.40479 -5.92371,3.14496 -8.51001,5.2501 -1.85001,1.50582 -3.20515,3.03836 -4.9169,5.20507 2.31462,1.81863 4.19552,3.23144 7.00613,5.20506 1.51897,-2.16995 2.29496,-2.97866 3.28694,-4.46663 3.80258,2.39728 7.29195,4.73492 11.09454,7.1322 -0.33066,0.99198 -0.84904,2.32198 -1.1797,3.31396 2.60688,1.15731 4.90355,2.16236 7.51043,2.85468 1.6849,-3.26703 2.03216,-4.71512 2.76463,-7.16822 0.739,-2.47499 1.1599,-5.03364 1.62996,-7.57347 0.3818,-2.06297 0.64406,-4.24122 0.96356,-6.22267 4.25832,-0.64441 6.39031,-1.24048 9.41055,-2.40441 2.78834,-1.07456 5.44695,-2.52145 7.93368,-4.17847 2.47413,-1.64862 4.80001,-3.54925 6.87105,-5.68234 2.45705,-2.53067 4.7054,-5.32144 6.50183,-8.35693 1.68978,-2.85528 3.01716,-5.94574 3.94432,-9.13138 1.06606,-3.66287 1.56144,-7.49492 1.81007,-11.30166 0.18164,-2.78106 0.14731,-5.59743 -0.24314,-8.35693 -0.62498,-4.41694 -1.71956,-8.8028 -3.34097,-12.95864 -1.05053,-2.6926 -2.4525,-5.26275 -4.08841,-7.6455 -1.76535,-2.57129 -3.82641,-4.96771 -6.1146,-7.08718 -2.6233,-2.42986 -5.53102,-4.59352 -8.63609,-6.36675 -2.33815,-1.33526 -4.87354,-2.3138 -7.42938,-3.16087 -2.37396,-0.78677 -4.05135,-1.04262 -6.94964,-1.55824 -0.44388,-2.86162 -0.47233,-4.21286 -0.85427,-6.29605 -0.45139,-2.46197 -0.98009,-4.91654 -1.69578,-7.31504 -0.49792,-1.66867 -1.09223,-3.29568 -1.80197,-4.9035 z m -4.34271,11.32539 c 0.56462,1.93731 1.13377,4.62155 1.27776,6.93638 -2.03658,-0.0849 -3.29424,-0.19939 -4.84344,-0.71209 -1.49729,-0.49552 -3.20868,-1.22889 -4.16754,-2.2402 1.51505,-0.99005 2.5251,-1.57831 3.94781,-2.27562 1.37052,-0.67172 2.45263,-1.16253 3.78541,-1.70847 z m 9.68285,15.51944 c 3.5364,0.58452 5.66825,1.13668 8.23085,2.40441 2.29981,1.13773 4.69801,2.5163 6.19566,4.56569 0,0 -4.29244,1.05101 -6.4388,1.57593 -2.23766,0.54725 -4.48145,1.10381 -6.7133,1.64052 -0.13152,-1.57823 -0.4765,-3.82065 -0.60802,-5.39888 -0.26303,-1.40286 -0.40335,-3.38481 -0.66639,-4.78767 z m 19.31639,12.19318 c 1.61632,1.42989 2.73075,3.04966 3.83626,4.76381 1.23177,1.90992 2.29319,3.95208 3.07081,6.08759 1.01601,2.79018 1.54252,4.71193 2.0442,8.67211 -8.57796,0.0731 -16.9881,0.15207 -25.56607,0.22513 -0.0146,-4.67623 -0.22387,-10.13594 -0.23848,-14.81218 3.05417,-0.90188 5.84849,-1.66772 8.76651,-2.52303 2.6995,-0.79127 5.51704,-1.7244 8.08677,-2.41343 z m -10.15799,26.60168 c 6.36939,0.003 12.53331,0.0309 19.10926,0.009 -0.14301,2.04672 -0.30912,3.83255 -0.71142,5.70937 -0.41202,1.92222 -1.00949,3.81141 -1.73802,5.63732 -0.60522,1.51686 -1.34862,2.9832 -2.17028,4.39459 -0.8889,1.52688 -1.53831,2.81574 -2.97175,4.38559 -5.80145,-1.85588 -12.21817,-4.44784 -18.01962,-6.30372 0.0438,-4.61778 0.001,-9.20537 0.045,-13.82315 2.19199,-0.007 4.33368,-0.01 6.45681,-0.009 z m -7.34833,20.82928 c 3.73432,1.29037 8.6381,2.91752 12.58942,4.88988 -1.94222,1.80232 -4.02573,3.36779 -6.34874,4.53867 -2.38972,1.20452 -6.16721,2.22181 -7.63806,2.47277 0.39413,-4.3995 0.87925,-7.96682 1.39738,-11.90132 z m -9.79595,20.68505 c -0.34522,2.53199 -0.89445,5.07078 -1.7543,7.41274 -1.91553,-0.86951 -2.90535,-1.401 -4.25249,-2.27958 -1.29709,-0.84593 -2.69235,-1.74413 -3.65938,-2.86204 3.01548,-1.17881 6.83572,-2.16883 9.66617,-2.27112 z"
       id="path3082"
       inkscape:connector-curvature="0"
       sodipodi:nodetypes="ccccccaaacaasscsssccccccsscsssssssssssscaacccacsccscaccccsscccacscssscccsccaccccacc" />
  </g>
  <g
     inkscape:groupmode="layer"
     id="layer3"
     inkscape:label="left_hemisphere"
     style="display:inline"
     transform="translate(-108.76489,-339.77392)">
    <path
       style="fill:#4f7a46;fill-opacity:1;stroke:#4f7a46;stroke-width:0.28817031px;stroke-linecap:butt;stroke-linejoin:miter;stroke-opacity:1"
       d="m 135.94761,362.98127 c -2.90832,1.18359 -5.85762,2.50437 -8.46499,4.29553 -3.17675,2.18229 -6.06037,4.82991 -8.58206,7.74456 -2.3645,2.73298 -4.42695,5.77276 -6.02455,9.01431 -1.34652,2.73211 -2.24023,5.6873 -2.92673,8.65411 -0.5643,2.43871 -0.79817,4.9497 -0.96356,7.44739 -0.10116,1.52756 -0.0978,3.06396 -0.0164,4.5927 0.119,2.23467 0.31261,4.47569 0.73686,6.67294 0.39046,2.02225 0.96672,4.012 1.65698,5.9525 0.7235,2.03398 1.53562,4.05266 2.59353,5.9345 1.41283,2.5132 3.17216,4.82501 4.97093,7.07817 1.23446,1.54631 2.55063,3.03591 3.98131,4.40269 1.42722,1.36348 2.96535,2.61593 4.5688,3.767 1.31142,0.94144 2.68148,1.8112 4.11425,2.55505 1.51889,0.78856 2.89184,1.63678 4.72489,2.00877 1.07464,-0.49599 3.2479,-1.5212 4.32254,-2.01719 0,0 -6.4569,-3.22135 -9.39377,-5.29325 -2.13168,-1.50385 -4.07762,-3.2743 -5.90624,-5.1349 -1.50543,-1.53175 -2.8573,-3.21416 -4.14245,-4.9349 -1.19245,-1.59664 -2.36891,-2.90121 -3.2995,-4.98538 3.34671,1.55688 4.46739,1.9891 7.03184,2.89186 1.90004,0.66886 3.71213,1.25744 6.2344,2.03634 1.00443,2.0493 1.92004,3.90909 3.06709,5.75589 1.15569,1.86072 2.24332,3.47327 3.82875,5.34057 0.88875,1.04676 3.06016,3.39183 3.59748,3.84649 0.90932,-0.53732 2.90642,-1.1619 3.81573,-1.69922 -2.18196,-2.351 -3.62686,-4.14188 -5.17603,-6.40931 -1.33873,-1.95943 -2.21116,-3.65905 -3.53379,-6.18033 2.27328,0.20667 4.3637,0.55646 6.55478,0.74103 3.15034,0.26538 6.16328,0.43608 9.46987,0.52615 l 0,-4.45762 c -3.30659,-0.0827 -6.09514,-0.1348 -9.1295,-0.40214 -2.77734,-0.24468 -5.68787,-0.58761 -8.29181,-1.09864 -0.33067,-0.86798 -0.76642,-2.63228 -1.07253,-3.96766 -0.34756,-1.51618 -0.64655,-3.04551 -0.86603,-4.58545 -0.23153,-1.6246 -0.36823,-3.26258 -0.47415,-4.90018 -0.0741,-1.14614 -0.12432,-2.05378 -0.11273,-3.44378 4.76836,-0.0657 14.14034,0.0413 20.71221,0 l 0,-4.5927 c -7.15052,0.12399 -13.47165,-0.12398 -20.62216,0 0.15781,-2.93962 0.45692,-6.9128 1.03668,-10.32173 0.46691,-2.74535 1.3672,-6.25019 1.96001,-8.12114 2.77101,-0.25955 6.01606,-0.25521 9.02611,-0.29082 2.56019,-0.0303 4.95287,0.0243 7.68081,0.0657 -0.0413,-1.5293 0.0954,-3.2255 0.054,-4.7548 -1.30848,-0.0971 -3.09575,-0.0974 -4.64416,-0.0991 -1.93955,-0.002 -3.87877,0.0581 -5.81758,0.11178 -1.62627,0.045 -3.61748,0.19144 -4.87751,0.17639 0.45466,-1.15731 1.93999,-3.43614 3.07403,-4.97093 1.11765,-1.51262 2.98941,-3.46969 4.15546,-4.53803 -0.76513,-0.46839 -1.13954,-0.75768 -1.74981,-1.06327 -0.69763,-0.34933 -1.35061,-0.62175 -2.17152,-0.87352 -1.19864,1.07465 -2.17764,1.9981 -3.11583,3.13385 -1.09305,1.32321 -2.01745,2.78379 -2.90872,4.25051 -0.93181,1.53342 -1.50892,2.48749 -2.5485,4.7458 -2.06207,0.53523 -4.26025,1.19458 -6.33534,1.95506 -2.33489,0.85568 -4.46813,1.70126 -6.86191,2.92737 0.99198,-1.81863 2.8842,-4.02038 4.15683,-5.65625 1.70083,-2.18626 3.30559,-3.72506 5.48175,-5.43879 2.5451,-2.00428 5.4348,-3.52374 8.29546,-5.04403 1.01213,-0.5379 2.06452,-0.98988 3.09783,-1.48587 z m -5.4212,19.55052 c -0.66132,3.09993 -1.38775,5.85275 -1.81907,8.8252 -0.4218,2.90687 -0.62344,6.34156 -0.74744,8.78018 -4.62924,-0.0413 -9.5091,0.0413 -14.13834,0 0.0263,-1.99901 0.54389,-5.62237 1.35515,-8.20041 0.61848,-1.96546 1.46336,-3.9041 2.22806,-4.65588 1.60219,-0.9689 3.92875,-1.85707 5.96599,-2.60395 2.33792,-0.85712 5.23318,-1.86564 7.15565,-2.14514 z m -9.63568,22.19808 c 2.33528,-0.0129 4.67189,-0.10332 7.06917,0 0.003,2.18318 0.0742,3.11338 0.19811,4.66475 0.14131,1.76854 0.34131,3.53419 0.62137,5.28612 0.32392,2.02626 0.76851,3.80128 1.22317,6.03323 -3.22644,-0.76002 -5.97187,-1.92437 -8.46458,-2.93012 -2.86261,-1.15499 -5.0068,-2.08363 -6.06858,-3.99721 -1.45865,-2.62882 -1.59023,-6.73463 -1.64783,-9.05677 2.39729,-0.0517 4.73389,0.0129 7.06917,0 z"
       id="path3794"
       inkscape:connector-curvature="0"
       sodipodi:nodetypes="csssaaaaaaaaaaccaaacscasccacaccacaaaccccacaccaacscacsscacssscccaccscacscaacsscs" />
  </g>
</svg>
